<svg viewBox="-441.76913 -310 883.53827 620" xmlns="http://www.w3.org/2000/svg">
<path d="M-103.92305,60 L0,120 L103.92305,60 L103.92305,-60 L0,-120 L-103.92305,-60 L-103.92305,60" fill="white" stroke="black" stroke-width="1"/>
<text font-size="10" text-align="center" text-anchor="middle" x="0" y="0">
x: 0.00, y: 0.00, q: 0, r: 0</tspan>
</text>
<path d="M103.92305,60 L207.8461,120 L311.76917,60 L311.76917,-60 L207.8461,-120 L103.92305,-60 L103.92305,60" fill="white" stroke="black" stroke-width="1"/>
<text font-size="10" text-align="center" text-anchor="middle" x="207.8461" y="0">
x: 1.73, y: 0.00, q: 1, r: 0</tspan>
</text>
<path d="M-311.76917,60 L-207.8461,120 L-103.92305,60 L-103.92305,-60 L-207.8461,-120 L-311.76917,-60 L-311.76917,60" fill="white" stroke="black" stroke-width="1"/>
<text font-size="10" text-align="center" text-anchor="middle" x="-207.8461" y="0">
x: -1.73, y: 0.00, q: -1, r: 0</tspan>
</text>
<path d="M0,240 L103.92305,300 L207.8461,240 L207.8461,120 L103.92305,60 L0,120 L0,240" fill="white" stroke="black" stroke-width="1"/>
<text font-size="10" text-align="center" text-anchor="middle" x="103.92305" y="180">
x: 0.87, y: 1.50, q: 0, r: 1</tspan>
</text>
<path d="M-207.8461,-120 L-103.92305,-60 L0,-120 L0,-240 L-103.92305,-300 L-207.8461,-240 L-207.8461,-120" fill="white" stroke="black" stroke-width="1"/>
<text font-size="10" text-align="center" text-anchor="middle" x="-103.92305" y="-180">
x: -0.87, y: -1.50, q: 0, r: -1</tspan>
</text>
<path d="M207.84608,240 L311.76913,300 L415.6922,240 L415.6922,120 L311.76913,60 L207.84608,120 L207.84608,240" fill="white" stroke="black" stroke-width="1"/>
<text font-size="10" text-align="center" text-anchor="middle" x="311.76913" y="180">
x: 2.60, y: 1.50, q: 1, r: 1</tspan>
</text>
<path d="M0,-120 L103.92305,-60 L207.8461,-120 L207.8461,-240 L103.92305,-300 L0,-240 L0,-120" fill="white" stroke="black" stroke-width="1"/>
<text font-size="10" text-align="center" text-anchor="middle" x="103.92305" y="-180">
x: 0.87, y: -1.50, q: 1, r: -1</tspan>
</text>
<path d="M-207.8461,240 L-103.92305,300 L0,240 L0,120 L-103.92305,60 L-207.8461,120 L-207.8461,240" fill="white" stroke="black" stroke-width="1"/>
<text font-size="10" text-align="center" text-anchor="middle" x="-103.92305" y="180">
x: -0.87, y: 1.50, q: -1, r: 1</tspan>
</text>
<path d="M-415.6922,-120 L-311.76913,-60 L-207.84608,-120 L-207.84608,-240 L-311.76913,-300 L-415.6922,-240 L-415.6922,-120" fill="white" stroke="black" stroke-width="1"/>
<text font-size="10" text-align="center" text-anchor="middle" x="-311.76913" y="-180">
x: -2.60, y: -1.50, q: -1, r: -1</tspan>
</text>
</svg>